<mxfile host="Electron" modified="2023-11-03T13:18:43.249Z" agent="Mozilla/5.0 (Windows NT 10.0; Win64; x64) AppleWebKit/537.36 (KHTML, like Gecko) draw.io/21.6.8 Chrome/114.0.5735.289 Electron/25.5.0 Safari/537.36" etag="2QBZwgmI_fPhPaGzaQJb" version="21.6.8" type="device">
  <diagram id="SBEfdyE0XhPzJmjpcf7U" name="Page-1">
    <mxGraphModel dx="2740" dy="-601" grid="0" gridSize="10" guides="1" tooltips="1" connect="1" arrows="1" fold="1" page="1" pageScale="1" pageWidth="1169" pageHeight="1654" math="1" shadow="0">
      <root>
        <mxCell id="0" />
        <mxCell id="1" parent="0" />
        <mxCell id="L5AipWE66xS1dO851Yee-29" style="edgeStyle=orthogonalEdgeStyle;rounded=0;orthogonalLoop=1;jettySize=auto;html=1;fillColor=#f5f5f5;strokeColor=#666666;strokeWidth=5;endArrow=none;endFill=0;" edge="1" parent="1" source="L5AipWE66xS1dO851Yee-27">
          <mxGeometry relative="1" as="geometry">
            <mxPoint x="-387" y="2569" as="targetPoint" />
          </mxGeometry>
        </mxCell>
        <mxCell id="L5AipWE66xS1dO851Yee-27" value="&lt;span style=&quot;font-size: 48px;&quot;&gt;&lt;span style=&quot;font-size: 32px;&quot;&gt;1500&lt;/span&gt;&lt;/span&gt;" style="rounded=0;whiteSpace=wrap;html=1;fontSize=24;fillColor=#f5f5f5;fontColor=#333333;strokeColor=#666666;" vertex="1" parent="1">
          <mxGeometry x="-427" y="2689" width="80" height="40" as="geometry" />
        </mxCell>
        <mxCell id="L5AipWE66xS1dO851Yee-28" value="" style="shape=mxgraph.cisco.routers.atm_router;sketch=0;html=1;pointerEvents=1;dashed=0;fillColor=#808080;strokeColor=#ffffff;strokeWidth=2;verticalLabelPosition=bottom;verticalAlign=top;align=center;outlineConnect=0;" vertex="1" parent="1">
          <mxGeometry x="-427" y="2449" width="80" height="83" as="geometry" />
        </mxCell>
        <mxCell id="L5AipWE66xS1dO851Yee-30" value="&lt;span style=&quot;font-size: 48px;&quot;&gt;&lt;span style=&quot;font-size: 32px;&quot;&gt;1500&lt;/span&gt;&lt;/span&gt;" style="rounded=0;whiteSpace=wrap;html=1;fontSize=24;fillColor=#f5f5f5;fontColor=#333333;strokeColor=#666666;" vertex="1" parent="1">
          <mxGeometry x="-427" y="2529" width="80" height="40" as="geometry" />
        </mxCell>
        <mxCell id="L5AipWE66xS1dO851Yee-32" style="edgeStyle=orthogonalEdgeStyle;rounded=0;orthogonalLoop=1;jettySize=auto;html=1;fillColor=#f5f5f5;strokeColor=#666666;strokeWidth=5;endArrow=none;endFill=0;" edge="1" parent="1" source="L5AipWE66xS1dO851Yee-33">
          <mxGeometry relative="1" as="geometry">
            <mxPoint x="-387" y="2289" as="targetPoint" />
          </mxGeometry>
        </mxCell>
        <mxCell id="L5AipWE66xS1dO851Yee-33" value="&lt;span style=&quot;font-size: 48px;&quot;&gt;&lt;span style=&quot;font-size: 32px;&quot;&gt;1000&lt;/span&gt;&lt;/span&gt;" style="rounded=0;whiteSpace=wrap;html=1;fontSize=24;fillColor=#f5f5f5;fontColor=#333333;strokeColor=#666666;" vertex="1" parent="1">
          <mxGeometry x="-427" y="2409" width="80" height="40" as="geometry" />
        </mxCell>
        <mxCell id="L5AipWE66xS1dO851Yee-34" value="&lt;span style=&quot;font-size: 48px;&quot;&gt;&lt;span style=&quot;font-size: 32px;&quot;&gt;1000&lt;/span&gt;&lt;/span&gt;" style="rounded=0;whiteSpace=wrap;html=1;fontSize=24;fillColor=#f5f5f5;fontColor=#333333;strokeColor=#666666;" vertex="1" parent="1">
          <mxGeometry x="-427" y="2249" width="80" height="40" as="geometry" />
        </mxCell>
        <mxCell id="L5AipWE66xS1dO851Yee-35" value="" style="shape=mxgraph.cisco.routers.atm_router;sketch=0;html=1;pointerEvents=1;dashed=0;fillColor=#808080;strokeColor=#ffffff;strokeWidth=2;verticalLabelPosition=bottom;verticalAlign=top;align=center;outlineConnect=0;" vertex="1" parent="1">
          <mxGeometry x="-427" y="2166" width="80" height="83" as="geometry" />
        </mxCell>
        <mxCell id="L5AipWE66xS1dO851Yee-36" value="&lt;font color=&quot;#ffffff&quot; style=&quot;font-size: 32px;&quot;&gt;&lt;b&gt;A&lt;/b&gt;&lt;/font&gt;" style="rounded=0;whiteSpace=wrap;html=1;strokeColor=#000000;fillColor=#6666FF;" vertex="1" parent="1">
          <mxGeometry x="-427" y="2729" width="80" height="80" as="geometry" />
        </mxCell>
        <mxCell id="L5AipWE66xS1dO851Yee-37" value="&lt;font color=&quot;#ffffff&quot; style=&quot;font-size: 32px;&quot;&gt;&lt;b&gt;B&lt;/b&gt;&lt;/font&gt;" style="rounded=0;whiteSpace=wrap;html=1;strokeColor=#000000;fillColor=#009900;" vertex="1" parent="1">
          <mxGeometry x="-427" y="1889" width="80" height="80" as="geometry" />
        </mxCell>
        <mxCell id="L5AipWE66xS1dO851Yee-42" style="edgeStyle=orthogonalEdgeStyle;rounded=0;orthogonalLoop=1;jettySize=auto;html=1;fillColor=#f5f5f5;strokeColor=#666666;strokeWidth=5;endArrow=none;endFill=0;" edge="1" parent="1" source="L5AipWE66xS1dO851Yee-43">
          <mxGeometry relative="1" as="geometry">
            <mxPoint x="-387" y="2009" as="targetPoint" />
          </mxGeometry>
        </mxCell>
        <mxCell id="L5AipWE66xS1dO851Yee-43" value="&lt;span style=&quot;font-size: 48px;&quot;&gt;&lt;span style=&quot;font-size: 32px;&quot;&gt;1500&lt;/span&gt;&lt;/span&gt;" style="rounded=0;whiteSpace=wrap;html=1;fontSize=24;fillColor=#f5f5f5;fontColor=#333333;strokeColor=#666666;" vertex="1" parent="1">
          <mxGeometry x="-427" y="2129" width="80" height="40" as="geometry" />
        </mxCell>
        <mxCell id="L5AipWE66xS1dO851Yee-44" value="&lt;span style=&quot;font-size: 48px;&quot;&gt;&lt;span style=&quot;font-size: 32px;&quot;&gt;1500&lt;/span&gt;&lt;/span&gt;" style="rounded=0;whiteSpace=wrap;html=1;fontSize=24;fillColor=#f5f5f5;fontColor=#333333;strokeColor=#666666;" vertex="1" parent="1">
          <mxGeometry x="-427" y="1969" width="80" height="40" as="geometry" />
        </mxCell>
        <mxCell id="L5AipWE66xS1dO851Yee-45" value="&lt;font style=&quot;font-size: 32px;&quot;&gt;&lt;font color=&quot;#009900&quot;&gt;A-1500-R-500-R-1500-R-1500-E&lt;br&gt;B-1500-R-1500-C&lt;br&gt;E-1500-R-1500-R-1500-R-1500-C&lt;br&gt;F-1500-R-1000-R-1500-D&lt;/font&gt;&lt;br&gt;&lt;font color=&quot;#009900&quot;&gt;G-1500-R-200-R-1500-E&lt;br&gt;A-1500-R-1000-R-1500-B&lt;/font&gt;&lt;/font&gt;" style="text;html=1;strokeColor=none;fillColor=none;align=center;verticalAlign=middle;whiteSpace=wrap;rounded=0;strokeWidth=3;" vertex="1" parent="1">
          <mxGeometry x="-1002" y="1961" width="600" height="30" as="geometry" />
        </mxCell>
        <mxCell id="L5AipWE66xS1dO851Yee-49" style="edgeStyle=orthogonalEdgeStyle;rounded=0;orthogonalLoop=1;jettySize=auto;html=1;entryX=0.5;entryY=1;entryDx=0;entryDy=0;endArrow=none;endFill=0;strokeWidth=4;fillColor=#f5f5f5;strokeColor=#666666;" edge="1" parent="1" source="L5AipWE66xS1dO851Yee-46" target="L5AipWE66xS1dO851Yee-48">
          <mxGeometry relative="1" as="geometry" />
        </mxCell>
        <mxCell id="L5AipWE66xS1dO851Yee-46" value="&lt;font color=&quot;#ffffff&quot;&gt;&lt;span style=&quot;font-size: 32px;&quot;&gt;&lt;b&gt;F&lt;/b&gt;&lt;/span&gt;&lt;/font&gt;" style="rounded=0;whiteSpace=wrap;html=1;strokeColor=#000000;fillColor=#CCCC00;" vertex="1" parent="1">
          <mxGeometry x="-707" y="2169" width="80" height="80" as="geometry" />
        </mxCell>
        <mxCell id="L5AipWE66xS1dO851Yee-48" value="1500" style="rounded=0;whiteSpace=wrap;html=1;strokeColor=#666666;fontSize=32;fontColor=#333333;fillColor=#f5f5f5;rotation=90;" vertex="1" parent="1">
          <mxGeometry x="-487" y="2189" width="80" height="40" as="geometry" />
        </mxCell>
        <mxCell id="L5AipWE66xS1dO851Yee-50" value="1500" style="rounded=0;whiteSpace=wrap;html=1;strokeColor=#666666;fontSize=32;fontColor=#333333;fillColor=#f5f5f5;rotation=90;" vertex="1" parent="1">
          <mxGeometry x="-367" y="2469.5" width="80" height="40" as="geometry" />
        </mxCell>
        <mxCell id="L5AipWE66xS1dO851Yee-51" style="edgeStyle=orthogonalEdgeStyle;rounded=0;orthogonalLoop=1;jettySize=auto;html=1;entryX=0.5;entryY=1;entryDx=0;entryDy=0;endArrow=none;endFill=0;strokeWidth=4;fillColor=#f5f5f5;strokeColor=#666666;" edge="1" parent="1">
          <mxGeometry relative="1" as="geometry">
            <mxPoint x="-307" y="2488.88" as="sourcePoint" />
            <mxPoint x="-147" y="2488.88" as="targetPoint" />
          </mxGeometry>
        </mxCell>
        <mxCell id="L5AipWE66xS1dO851Yee-52" value="&lt;font color=&quot;#ffffff&quot;&gt;&lt;span style=&quot;font-size: 32px;&quot;&gt;&lt;b&gt;D&lt;/b&gt;&lt;/span&gt;&lt;/font&gt;" style="rounded=0;whiteSpace=wrap;html=1;strokeColor=#000000;fillColor=#5C998E;" vertex="1" parent="1">
          <mxGeometry x="-147" y="2449" width="80" height="80" as="geometry" />
        </mxCell>
        <mxCell id="L5AipWE66xS1dO851Yee-53" value="1500" style="rounded=0;whiteSpace=wrap;html=1;strokeColor=#666666;fontSize=32;fontColor=#333333;fillColor=#f5f5f5;rotation=90;" vertex="1" parent="1">
          <mxGeometry x="-367" y="2187.5" width="80" height="40" as="geometry" />
        </mxCell>
        <mxCell id="L5AipWE66xS1dO851Yee-55" value="&lt;font color=&quot;#ffffff&quot;&gt;&lt;span style=&quot;font-size: 32px;&quot;&gt;&lt;b&gt;C&lt;/b&gt;&lt;/span&gt;&lt;/font&gt;" style="rounded=0;whiteSpace=wrap;html=1;strokeColor=#000000;fillColor=#FF8000;" vertex="1" parent="1">
          <mxGeometry x="-147" y="2169" width="80" height="80" as="geometry" />
        </mxCell>
        <mxCell id="L5AipWE66xS1dO851Yee-56" style="edgeStyle=orthogonalEdgeStyle;rounded=0;orthogonalLoop=1;jettySize=auto;html=1;entryX=0.5;entryY=1;entryDx=0;entryDy=0;endArrow=none;endFill=0;strokeWidth=4;fillColor=#f5f5f5;strokeColor=#666666;" edge="1" parent="1">
          <mxGeometry relative="1" as="geometry">
            <mxPoint x="-307" y="2208.38" as="sourcePoint" />
            <mxPoint x="-147" y="2208.38" as="targetPoint" />
          </mxGeometry>
        </mxCell>
        <mxCell id="L5AipWE66xS1dO851Yee-57" value="" style="shape=mxgraph.cisco.routers.atm_router;sketch=0;html=1;pointerEvents=1;dashed=0;fillColor=#808080;strokeColor=#ffffff;strokeWidth=2;verticalLabelPosition=bottom;verticalAlign=top;align=center;outlineConnect=0;" vertex="1" parent="1">
          <mxGeometry x="-747" y="2449" width="80" height="83" as="geometry" />
        </mxCell>
        <mxCell id="L5AipWE66xS1dO851Yee-61" value="&lt;span style=&quot;font-size: 48px;&quot;&gt;&lt;span style=&quot;font-size: 32px;&quot;&gt;1500&lt;/span&gt;&lt;/span&gt;" style="rounded=0;whiteSpace=wrap;html=1;fontSize=24;fillColor=#f5f5f5;fontColor=#333333;strokeColor=#666666;" vertex="1" parent="1">
          <mxGeometry x="-667" y="2409" width="80" height="40" as="geometry" />
        </mxCell>
        <mxCell id="L5AipWE66xS1dO851Yee-62" value="&lt;span style=&quot;font-size: 48px;&quot;&gt;&lt;span style=&quot;font-size: 32px;&quot;&gt;1500&lt;/span&gt;&lt;/span&gt;" style="rounded=0;whiteSpace=wrap;html=1;fontSize=24;fillColor=#f5f5f5;fontColor=#333333;strokeColor=#666666;" vertex="1" parent="1">
          <mxGeometry x="-507" y="2249" width="80" height="40" as="geometry" />
        </mxCell>
        <mxCell id="L5AipWE66xS1dO851Yee-63" value="1500" style="rounded=0;whiteSpace=wrap;html=1;strokeColor=#666666;fontSize=32;fontColor=#333333;fillColor=#f5f5f5;rotation=90;" vertex="1" parent="1">
          <mxGeometry x="-807" y="2467.5" width="80" height="40" as="geometry" />
        </mxCell>
        <mxCell id="L5AipWE66xS1dO851Yee-64" value="" style="shape=mxgraph.cisco.routers.atm_router;sketch=0;html=1;pointerEvents=1;dashed=0;fillColor=#808080;strokeColor=#ffffff;strokeWidth=2;verticalLabelPosition=bottom;verticalAlign=top;align=center;outlineConnect=0;" vertex="1" parent="1">
          <mxGeometry x="-1067" y="2446" width="80" height="83" as="geometry" />
        </mxCell>
        <mxCell id="L5AipWE66xS1dO851Yee-65" value="1500" style="rounded=0;whiteSpace=wrap;html=1;strokeColor=#666666;fontSize=32;fontColor=#333333;fillColor=#f5f5f5;rotation=90;" vertex="1" parent="1">
          <mxGeometry x="-1007" y="2467.5" width="80" height="40" as="geometry" />
        </mxCell>
        <mxCell id="L5AipWE66xS1dO851Yee-66" value="&lt;font color=&quot;#ffffff&quot; style=&quot;font-size: 32px;&quot;&gt;&lt;b&gt;E&lt;/b&gt;&lt;/font&gt;" style="rounded=0;whiteSpace=wrap;html=1;strokeColor=#000000;fillColor=#FF3333;" vertex="1" parent="1">
          <mxGeometry x="-1067" y="2729" width="80" height="80" as="geometry" />
        </mxCell>
        <mxCell id="L5AipWE66xS1dO851Yee-67" style="edgeStyle=orthogonalEdgeStyle;rounded=0;orthogonalLoop=1;jettySize=auto;html=1;fillColor=#f5f5f5;strokeColor=#666666;strokeWidth=5;endArrow=none;endFill=0;" edge="1" parent="1" source="L5AipWE66xS1dO851Yee-68">
          <mxGeometry relative="1" as="geometry">
            <mxPoint x="-1027" y="2569" as="targetPoint" />
          </mxGeometry>
        </mxCell>
        <mxCell id="L5AipWE66xS1dO851Yee-68" value="&lt;span style=&quot;font-size: 48px;&quot;&gt;&lt;span style=&quot;font-size: 32px;&quot;&gt;1500&lt;/span&gt;&lt;/span&gt;" style="rounded=0;whiteSpace=wrap;html=1;fontSize=24;fillColor=#f5f5f5;fontColor=#333333;strokeColor=#666666;" vertex="1" parent="1">
          <mxGeometry x="-1067" y="2689" width="80" height="40" as="geometry" />
        </mxCell>
        <mxCell id="L5AipWE66xS1dO851Yee-69" value="&lt;span style=&quot;font-size: 48px;&quot;&gt;&lt;span style=&quot;font-size: 32px;&quot;&gt;1500&lt;/span&gt;&lt;/span&gt;" style="rounded=0;whiteSpace=wrap;html=1;fontSize=24;fillColor=#f5f5f5;fontColor=#333333;strokeColor=#666666;" vertex="1" parent="1">
          <mxGeometry x="-1067" y="2529" width="80" height="40" as="geometry" />
        </mxCell>
        <mxCell id="L5AipWE66xS1dO851Yee-70" value="500" style="rounded=0;whiteSpace=wrap;html=1;strokeColor=#666666;fontSize=32;fontColor=#333333;fillColor=#f5f5f5;rotation=90;" vertex="1" parent="1">
          <mxGeometry x="-487" y="2469" width="80" height="40" as="geometry" />
        </mxCell>
        <mxCell id="L5AipWE66xS1dO851Yee-71" value="500" style="rounded=0;whiteSpace=wrap;html=1;strokeColor=#666666;fontSize=32;fontColor=#333333;fillColor=#f5f5f5;rotation=90;" vertex="1" parent="1">
          <mxGeometry x="-687" y="2468.5" width="80" height="40" as="geometry" />
        </mxCell>
        <mxCell id="L5AipWE66xS1dO851Yee-72" style="edgeStyle=orthogonalEdgeStyle;rounded=0;orthogonalLoop=1;jettySize=auto;html=1;entryX=0.5;entryY=1;entryDx=0;entryDy=0;endArrow=none;endFill=0;strokeWidth=4;fillColor=#f5f5f5;strokeColor=#666666;" edge="1" parent="1">
          <mxGeometry relative="1" as="geometry">
            <mxPoint x="-947" y="2486.79" as="sourcePoint" />
            <mxPoint x="-787" y="2486.79" as="targetPoint" />
          </mxGeometry>
        </mxCell>
        <mxCell id="L5AipWE66xS1dO851Yee-73" style="edgeStyle=orthogonalEdgeStyle;rounded=0;orthogonalLoop=1;jettySize=auto;html=1;entryX=0.5;entryY=1;entryDx=0;entryDy=0;endArrow=none;endFill=0;strokeWidth=4;fillColor=#f5f5f5;strokeColor=#666666;" edge="1" parent="1">
          <mxGeometry relative="1" as="geometry">
            <mxPoint x="-627" y="2486.79" as="sourcePoint" />
            <mxPoint x="-467" y="2486.79" as="targetPoint" />
          </mxGeometry>
        </mxCell>
        <mxCell id="L5AipWE66xS1dO851Yee-74" style="rounded=0;orthogonalLoop=1;jettySize=auto;html=1;entryX=0.5;entryY=1;entryDx=0;entryDy=0;endArrow=none;endFill=0;strokeWidth=4;fillColor=#f5f5f5;strokeColor=#666666;" edge="1" parent="1" target="L5AipWE66xS1dO851Yee-62">
          <mxGeometry relative="1" as="geometry">
            <mxPoint x="-627" y="2409" as="sourcePoint" />
            <mxPoint x="-467" y="2409" as="targetPoint" />
          </mxGeometry>
        </mxCell>
        <mxCell id="L5AipWE66xS1dO851Yee-75" value="&lt;font color=&quot;#ffffff&quot; style=&quot;font-size: 32px;&quot;&gt;&lt;b&gt;G&lt;/b&gt;&lt;/font&gt;" style="rounded=0;whiteSpace=wrap;html=1;strokeColor=#000000;fillColor=#B5739D;" vertex="1" parent="1">
          <mxGeometry x="-1067" y="1889" width="80" height="80" as="geometry" />
        </mxCell>
        <mxCell id="L5AipWE66xS1dO851Yee-76" style="edgeStyle=orthogonalEdgeStyle;rounded=0;orthogonalLoop=1;jettySize=auto;html=1;fillColor=#f5f5f5;strokeColor=#666666;strokeWidth=5;endArrow=none;endFill=0;" edge="1" parent="1" source="L5AipWE66xS1dO851Yee-77">
          <mxGeometry relative="1" as="geometry">
            <mxPoint x="-1027" y="2009" as="targetPoint" />
          </mxGeometry>
        </mxCell>
        <mxCell id="L5AipWE66xS1dO851Yee-77" value="&lt;span style=&quot;font-size: 48px;&quot;&gt;&lt;span style=&quot;font-size: 32px;&quot;&gt;1500&lt;/span&gt;&lt;/span&gt;" style="rounded=0;whiteSpace=wrap;html=1;fontSize=24;fillColor=#f5f5f5;fontColor=#333333;strokeColor=#666666;" vertex="1" parent="1">
          <mxGeometry x="-1067" y="2129" width="80" height="40" as="geometry" />
        </mxCell>
        <mxCell id="L5AipWE66xS1dO851Yee-78" value="&lt;span style=&quot;font-size: 48px;&quot;&gt;&lt;span style=&quot;font-size: 32px;&quot;&gt;1500&lt;/span&gt;&lt;/span&gt;" style="rounded=0;whiteSpace=wrap;html=1;fontSize=24;fillColor=#f5f5f5;fontColor=#333333;strokeColor=#666666;" vertex="1" parent="1">
          <mxGeometry x="-1067" y="1969" width="80" height="40" as="geometry" />
        </mxCell>
        <mxCell id="L5AipWE66xS1dO851Yee-79" value="" style="shape=mxgraph.cisco.routers.atm_router;sketch=0;html=1;pointerEvents=1;dashed=0;fillColor=#808080;strokeColor=#ffffff;strokeWidth=2;verticalLabelPosition=bottom;verticalAlign=top;align=center;outlineConnect=0;" vertex="1" parent="1">
          <mxGeometry x="-1067" y="2169" width="80" height="83" as="geometry" />
        </mxCell>
        <mxCell id="L5AipWE66xS1dO851Yee-80" value="&lt;span style=&quot;font-size: 48px;&quot;&gt;&lt;span style=&quot;font-size: 32px;&quot;&gt;200&lt;/span&gt;&lt;/span&gt;" style="rounded=0;whiteSpace=wrap;html=1;fontSize=24;fillColor=#f5f5f5;fontColor=#333333;strokeColor=#666666;" vertex="1" parent="1">
          <mxGeometry x="-1067" y="2249" width="80" height="40" as="geometry" />
        </mxCell>
        <mxCell id="L5AipWE66xS1dO851Yee-81" value="&lt;span style=&quot;font-size: 48px;&quot;&gt;&lt;span style=&quot;font-size: 32px;&quot;&gt;200&lt;/span&gt;&lt;/span&gt;" style="rounded=0;whiteSpace=wrap;html=1;fontSize=24;fillColor=#f5f5f5;fontColor=#333333;strokeColor=#666666;" vertex="1" parent="1">
          <mxGeometry x="-1067" y="2409" width="80" height="40" as="geometry" />
        </mxCell>
        <mxCell id="L5AipWE66xS1dO851Yee-82" style="edgeStyle=orthogonalEdgeStyle;rounded=0;orthogonalLoop=1;jettySize=auto;html=1;fillColor=#f5f5f5;strokeColor=#666666;strokeWidth=5;endArrow=none;endFill=0;" edge="1" parent="1">
          <mxGeometry relative="1" as="geometry">
            <mxPoint x="-1028" y="2289" as="targetPoint" />
            <mxPoint x="-1028" y="2409" as="sourcePoint" />
          </mxGeometry>
        </mxCell>
      </root>
    </mxGraphModel>
  </diagram>
</mxfile>
